<svg width="32" height="32" viewBox="0 0 32 32" fill="none" xmlns="http://www.w3.org/2000/svg">
<path d="M10 21C10 20.7348 10.1054 20.4804 10.2929 20.2929C10.4804 20.1054 10.7348 20 11 20H15C15.2652 20 15.5196 20.1054 15.7071 20.2929C15.8946 20.4804 16 20.7348 16 21C16 21.2652 15.8946 21.5196 15.7071 21.7071C15.5196 21.8946 15.2652 22 15 22H11C10.7348 22 10.4804 21.8946 10.2929 21.7071C10.1054 21.5196 10 21.2652 10 21ZM10 17C10 16.7348 10.1054 16.4804 10.2929 16.2929C10.4804 16.1054 10.7348 16 11 16H21C21.2652 16 21.5196 16.1054 21.7071 16.2929C21.8946 16.4804 22 16.7348 22 17C22 17.2652 21.8946 17.5196 21.7071 17.7071C21.5196 17.8946 21.2652 18 21 18H11C10.7348 18 10.4804 17.8946 10.2929 17.7071C10.1054 17.5196 10 17.2652 10 17ZM10 13C10 12.7348 10.1054 12.4804 10.2929 12.2929C10.4804 12.1054 10.7348 12 11 12H21C21.2652 12 21.5196 12.1054 21.7071 12.2929C21.8946 12.4804 22 12.7348 22 13C22 13.2652 21.8946 13.5196 21.7071 13.7071C21.5196 13.8946 21.2652 14 21 14H11C10.7348 14 10.4804 13.8946 10.2929 13.7071C10.1054 13.5196 10 13.2652 10 13ZM10 9C10 8.73478 10.1054 8.48043 10.2929 8.29289C10.4804 8.10536 10.7348 8 11 8H21C21.2652 8 21.5196 8.10536 21.7071 8.29289C21.8946 8.48043 22 8.73478 22 9C22 9.26522 21.8946 9.51957 21.7071 9.70711C21.5196 9.89464 21.2652 10 21 10H11C10.7348 10 10.4804 9.89464 10.2929 9.70711C10.1054 9.51957 10 9.26522 10 9Z" fill="white"/>
<path d="M6 0H26C27.0609 0 28.0783 0.421427 28.8284 1.17157C29.5786 1.92172 30 2.93913 30 4V28C30 29.0609 29.5786 30.0783 28.8284 30.8284C28.0783 31.5786 27.0609 32 26 32H6C4.93913 32 3.92172 31.5786 3.17157 30.8284C2.42143 30.0783 2 29.0609 2 28V26H4V28C4 28.5304 4.21071 29.0391 4.58579 29.4142C4.96086 29.7893 5.46957 30 6 30H26C26.5304 30 27.0391 29.7893 27.4142 29.4142C27.7893 29.0391 28 28.5304 28 28V4C28 3.46957 27.7893 2.96086 27.4142 2.58579C27.0391 2.21071 26.5304 2 26 2H6C5.46957 2 4.96086 2.21071 4.58579 2.58579C4.21071 2.96086 4 3.46957 4 4V6H2V4C2 2.93913 2.42143 1.92172 3.17157 1.17157C3.92172 0.421427 4.93913 0 6 0Z" fill="white"/>
<path d="M2 10V9C2 8.73478 2.10536 8.48043 2.29289 8.29289C2.48043 8.10536 2.73478 8 3 8C3.26522 8 3.51957 8.10536 3.70711 8.29289C3.89464 8.48043 4 8.73478 4 9V10H5C5.26522 10 5.51957 10.1054 5.70711 10.2929C5.89464 10.4804 6 10.7348 6 11C6 11.2652 5.89464 11.5196 5.70711 11.7071C5.51957 11.8946 5.26522 12 5 12H1C0.734784 12 0.48043 11.8946 0.292893 11.7071C0.105357 11.5196 0 11.2652 0 11C0 10.7348 0.105357 10.4804 0.292893 10.2929C0.48043 10.1054 0.734784 10 1 10H2ZM2 16V15C2 14.7348 2.10536 14.4804 2.29289 14.2929C2.48043 14.1054 2.73478 14 3 14C3.26522 14 3.51957 14.1054 3.70711 14.2929C3.89464 14.4804 4 14.7348 4 15V16H5C5.26522 16 5.51957 16.1054 5.70711 16.2929C5.89464 16.4804 6 16.7348 6 17C6 17.2652 5.89464 17.5196 5.70711 17.7071C5.51957 17.8946 5.26522 18 5 18H1C0.734784 18 0.48043 17.8946 0.292893 17.7071C0.105357 17.5196 0 17.2652 0 17C0 16.7348 0.105357 16.4804 0.292893 16.2929C0.48043 16.1054 0.734784 16 1 16H2ZM2 22V21C2 20.7348 2.10536 20.4804 2.29289 20.2929C2.48043 20.1054 2.73478 20 3 20C3.26522 20 3.51957 20.1054 3.70711 20.2929C3.89464 20.4804 4 20.7348 4 21V22H5C5.26522 22 5.51957 22.1054 5.70711 22.2929C5.89464 22.4804 6 22.7348 6 23C6 23.2652 5.89464 23.5196 5.70711 23.7071C5.51957 23.8946 5.26522 24 5 24H1C0.734784 24 0.48043 23.8946 0.292893 23.7071C0.105357 23.5196 0 23.2652 0 23C0 22.7348 0.105357 22.4804 0.292893 22.2929C0.48043 22.1054 0.734784 22 1 22H2Z" fill="white"/>
</svg>
